<svg width="24" height="24" viewBox="0 0 24 24" fill="none" xmlns="http://www.w3.org/2000/svg">
<path d="M12 22.5C9.21523 22.5 6.54451 21.3938 4.57538 19.4246C2.60625 17.4555 1.5 14.7848 1.5 12C1.5 9.21523 2.60625 6.54451 4.57538 4.57538C6.54451 2.60625 9.21523 1.5 12 1.5C14.7848 1.5 17.4555 2.60625 19.4246 4.57538C21.3938 6.54451 22.5 9.21523 22.5 12C22.5 14.7848 21.3938 17.4555 19.4246 19.4246C17.4555 21.3938 14.7848 22.5 12 22.5ZM12 24C15.1826 24 18.2348 22.7357 20.4853 20.4853C22.7357 18.2348 24 15.1826 24 12C24 8.8174 22.7357 5.76516 20.4853 3.51472C18.2348 1.26428 15.1826 0 12 0C8.8174 0 5.76516 1.26428 3.51472 3.51472C1.26428 5.76516 0 8.8174 0 12C0 15.1826 1.26428 18.2348 3.51472 20.4853C5.76516 22.7357 8.8174 24 12 24Z" fill="#FAF4F0"/>
<path d="M6.42722 14.3505C6.59948 14.251 6.80419 14.2241 6.99632 14.2756C7.18845 14.3271 7.35227 14.4527 7.45173 14.625C7.91239 15.4235 8.5753 16.0866 9.37372 16.5474C10.1721 17.0082 11.0779 17.2505 11.9997 17.25C12.9216 17.2505 13.8273 17.0082 14.6257 16.5474C15.4241 16.0866 16.0871 15.4235 16.5477 14.625C16.5966 14.539 16.662 14.4635 16.7402 14.4029C16.8184 14.3423 16.9078 14.2978 17.0032 14.2719C17.0987 14.246 17.1983 14.2392 17.2964 14.2519C17.3945 14.2647 17.4891 14.2967 17.5747 14.3462C17.6604 14.3956 17.7354 14.4615 17.7955 14.5401C17.8556 14.6187 17.8995 14.7084 17.9248 14.804C17.9501 14.8996 17.9562 14.9993 17.9428 15.0973C17.9294 15.1953 17.8967 15.2897 17.8467 15.375C17.2544 16.4015 16.4021 17.2539 15.3757 17.8464C14.3493 18.4389 13.1849 18.7505 11.9997 18.75C10.8146 18.7505 9.65018 18.4389 8.62374 17.8464C7.5973 17.2539 6.74504 16.4015 6.15273 15.375C6.05327 15.2027 6.02632 14.998 6.0778 14.8059C6.12928 14.6138 6.25497 14.45 6.42722 14.3505ZM10.4997 9.75C10.4997 10.992 9.82772 12 8.99973 12C8.17173 12 7.49973 10.992 7.49973 9.75C7.49973 8.508 8.17173 7.5 8.99973 7.5C9.82772 7.5 10.4997 8.508 10.4997 9.75ZM16.4997 9.75C16.4997 10.992 15.8277 12 14.9997 12C14.1717 12 13.4997 10.992 13.4997 9.75C13.4997 8.508 14.1717 7.5 14.9997 7.5C15.8277 7.5 16.4997 8.508 16.4997 9.75Z" fill="#FAF4F0"/>
</svg>
