<svg width="205" height="28" viewBox="0 0 205 28" fill="none" xmlns="http://www.w3.org/2000/svg">
<path d="M6.092 27.288C6.8 27.288 7.394 27.174 7.874 26.946C8.354 26.706 8.888 26.256 9.476 25.596L10.016 27H12.716V13.824H6.218V17.1H8.234V21.69C8.234 22.338 8.09 22.86 7.802 23.256C7.526 23.64 7.142 23.832 6.65 23.832C6.134 23.832 5.726 23.64 5.426 23.256C5.138 22.872 4.994 22.35 4.994 21.69V6.174C4.994 4.746 5.558 4.032 6.686 4.032C7.802 4.032 8.36 4.746 8.36 6.174V10.044H12.644V6.174C12.644 4.338 12.092 2.892 10.988 1.836C9.884 0.779999 8.45 0.251999 6.686 0.251999C4.91 0.251999 3.47 0.779999 2.366 1.836C1.274 2.88 0.698 4.326 0.638 6.174V21.366C0.638 23.13 1.112 24.558 2.06 25.65C3.02 26.742 4.364 27.288 6.092 27.288ZM16.0252 27H26.4652V23.004H20.3992V15.732H24.7552V11.484H20.3992V4.536H26.4652V0.539999H16.0252V27ZM28.8572 27H39.2972V23.004H33.2312V15.732H37.5872V11.484H33.2312V4.536H39.2972V0.539999H28.8572V27ZM41.6893 27H46.1173V19.044L47.4853 15.912L47.8093 15.228H47.9713L48.0973 15.75L51.2833 27H55.5133L50.7073 8.748L54.7573 0.539999H50.5273L46.5673 10.116L46.3153 10.656H46.1173V0.539999H41.6893V27ZM62.5768 27H66.8068L67.6888 21.6H72.5308L73.4308 27H77.6608L72.8188 0.539999H67.4008L62.5768 27ZM68.3728 17.496L69.7948 9.99L69.9568 9.018H70.2808L70.4428 9.99L71.8468 17.496H68.3728ZM79.5877 27H90.1897V23.4H83.9617V0.539999H79.5877V27ZM98.2908 27H102.665V0.539999H98.2908V27ZM105.92 27H109.898V12.564L109.916 10.854H110.24L110.708 12.564L115.37 27H119.312V0.539999H115.334V15.156L115.316 16.884H115.01L114.524 15.066L109.88 0.539999H105.92V27ZM128.254 27.288C130.378 27.288 131.974 26.736 133.042 25.632C134.122 24.528 134.662 22.95 134.662 20.898C134.662 19.938 134.53 19.068 134.266 18.288C134.002 17.496 133.552 16.644 132.916 15.732C132.292 14.808 131.428 13.68 130.324 12.348C129.496 11.34 128.8 10.494 128.236 9.81C127.684 9.114 127.264 8.478 126.976 7.902C126.7 7.314 126.562 6.69 126.562 6.03C126.562 4.554 127.15 3.816 128.326 3.816C129.706 3.816 130.396 5.082 130.396 7.614L134.662 7.29C134.662 4.974 134.086 3.198 132.934 1.962C131.782 0.725999 130.228 0.155999 128.272 0.251999C126.988 0.311999 125.896 0.629999 124.996 1.206C124.108 1.782 123.43 2.52 122.962 3.42C122.506 4.308 122.278 5.268 122.278 6.3C122.278 7.464 122.596 8.712 123.232 10.044C123.868 11.364 124.87 12.864 126.238 14.544C127.174 15.696 127.918 16.62 128.47 17.316C129.034 18 129.448 18.552 129.712 18.972C129.988 19.392 130.168 19.746 130.252 20.034C130.348 20.322 130.396 20.64 130.396 20.988C130.396 22.812 129.664 23.724 128.2 23.724C127.396 23.724 126.814 23.394 126.454 22.734C126.094 22.074 125.914 20.91 125.914 19.242L121.63 19.566C121.498 22.098 121.996 24.018 123.124 25.326C124.252 26.634 125.962 27.288 128.254 27.288ZM139.771 27H144.127V4.536H148.573V0.539999H135.325V4.536H139.771V27ZM147.655 27H151.885L152.767 21.6H157.609L158.509 27H162.739L157.897 0.539999H152.479L147.655 27ZM153.451 17.496L154.873 9.99L155.035 9.018H155.359L155.521 9.99L156.925 17.496H153.451ZM164.666 27H168.644V12.564L168.662 10.854H168.986L169.454 12.564L174.116 27H178.058V0.539999H174.08V15.156L174.062 16.884H173.756L173.27 15.066L168.626 0.539999H164.666V27ZM184.138 27H188.494V4.536H192.94V0.539999H179.692V4.536H184.138V27ZM194.513 27H204.953V23.004H198.887V15.732H203.243V11.484H198.887V4.536H204.953V0.539999H194.513V27Z" fill="white"/>
</svg>
