<svg width="46" height="28" viewBox="0 0 46 28" fill="none" xmlns="http://www.w3.org/2000/svg">
<path d="M6.092 27.288C6.8 27.288 7.394 27.174 7.874 26.946C8.354 26.706 8.888 26.256 9.476 25.596L10.016 27H12.716V13.824H6.218V17.1H8.234V21.69C8.234 22.338 8.09 22.86 7.802 23.256C7.526 23.64 7.142 23.832 6.65 23.832C6.134 23.832 5.726 23.64 5.426 23.256C5.138 22.872 4.994 22.35 4.994 21.69V6.174C4.994 4.746 5.558 4.032 6.686 4.032C7.802 4.032 8.36 4.746 8.36 6.174V10.044H12.644V6.174C12.644 4.338 12.092 2.892 10.988 1.836C9.884 0.779999 8.45 0.251999 6.686 0.251999C4.91 0.251999 3.47 0.779999 2.366 1.836C1.274 2.88 0.698 4.326 0.638 6.174V21.366C0.638 23.13 1.112 24.558 2.06 25.65C3.02 26.742 4.364 27.288 6.092 27.288ZM14.7292 27H18.9592L19.8412 21.6H24.6832L25.5832 27H29.8132L24.9712 0.539999H19.5532L14.7292 27ZM20.5252 17.496L21.9472 9.99L22.1092 9.018H22.4332L22.5952 9.99L23.9992 17.496H20.5252ZM31.74 27H36.168V19.044L37.536 15.912L37.86 15.228H38.022L38.148 15.75L41.334 27H45.564L40.758 8.748L44.808 0.539999H40.578L36.618 10.116L36.366 10.656H36.168V0.539999H31.74V27Z" fill="white"/>
</svg>
